<svg height="512pt" viewBox="0 -9 512 512" width="512pt" xmlns="http://www.w3.org/2000/svg"><path d="m310.441406 344.84375v40.578125l123.507813-97.71875v-20.519531h30v35.039062l-127.109375 100.558594v59.101562h-56.398438v-129.890624l77.089844-73.46875-28.769531-29.203126v-67.410156h30v55.113282l20.488281 20.796874 28.289062-26.949218v-73.289063l-56.277343-54.929687v-67.582032h30v54.941407l26.277343 25.648437v-18.277344h30v72.390626l44.460938-38.652344v-70.710938h30v84.382813l-74.460938 64.730469v34.199218zm0 0" fill="#fcbe00"/><path d="m264.121094 215.921875-.5625.558594.5625.742187 15.949218 21.199219v223.460937h-88.679687v-46.769531l-140.359375-97.101562v-37.109375h30v21.390625l139.46875 96.480469v-53.382813l-160.921875-109.179687v-28.628907l-59.578125-40.640625v-52.917968h30v37.070312l29.578125 20.179688v-70.640626h30v119.679688l52.09375 35.339844 12.269531-8.398438v-34.03125h30v49.847656l-15.601562 10.683594 81.730468 55.449219v-80.761719l-64.949218-86.308594h-56.152344v-103.761718h30v73.761718h27.480469l31.929687-31.449218v-85.613282h30v98.171876l-35.898437 35.359374 32.859375 43.671876 36.589844-36.589844v-55.050782h30v67.46875zm0 0" fill="#fcbe00"/><path d="m66.035156 28.839844h30.132813v30.132812h-30.132813zm0 0" fill="#76e2f8"/><path d="m113.832031 183.085938h30.132813v30.132812h-30.132813zm0 0" fill="#76e2f8"/><g fill="#24c4ea"><path d="m284.753906 36.675781h30.132813v30.132813h-30.132813zm0 0"/><path d="m466.867188 187.171875h30.132812v30.132813h-30.132812zm0 0"/><path d="m422.601562 0h30.132813v30.132812h-30.132813zm0 0"/></g><path d="m264.121094 217.222656 15.949218 21.199219v223.460937h-15.949218zm0 0" fill="#ff9000"/><path d="m311.929688 168.101562-47.808594 47.820313v-42.429687l17.808594-17.808594v-55.050782h30zm0 0" fill="#ff9000"/><path d="m310.441406 344.84375v40.578125l123.507813-97.71875v-20.519531h30v35.039062l-127.109375 100.558594v59.101562h-56.398438v-129.890624l77.089844-73.46875-28.769531-29.203126v-67.410156h30v55.113282l20.488281 20.796874 28.289062-26.949218v-73.289063l-56.277343-54.929687v-67.582032h30v54.941407l26.277343 25.648437v-18.277344h30v72.390626l44.460938-38.652344v-70.710938h30v84.382813l-74.460938 64.730469v34.199218zm0 0" fill="#ff9000"/><path d="m336.839844 392.273438v101.359374h-145.449219v-89.390624l34.121094-81.800782h79.578125zm0 0" fill="#ffd92d"/><path d="m336.839844 392.273438v101.359374h-72.71875v-171.191406h40.96875zm0 0" fill="#fcbe00"/></svg>